# xmcd
#
# Track frame offsets:
#	150
#	19962
#	33997
#	50005
#	68997
#	79867
#	96427
#	116257
#	135565
#	151882
#	169247
#
# Disc length: 2510 seconds
#
# Revision: 3
# Processed by: cddbd v1.4PL0 Copyright (c) Steve Scherf et al.
# Submitted via: EasyCDDAExtractor 5.0.0.0
#
DISCID=8f09cc0b
DTITLE=Renata Przemyk - ya hoz na
DYEAR=1989
DGENRE=Rock
TTITLE0=yaho zna
TTITLE1=babê zes³a³ Bóg
TTITLE2=tortury
TTITLE3=top
TTITLE4=samolot rozbi³ siê przed startem
TTITLE5=makija¿ twarzy
TTITLE6=kochaj mnie jak wariat
TTITLE7=prinsówna
TTITLE8=hiszpañskie dzwonki
TTITLE9=Protest Dance
TTITLE10=Ob. Ereck
EXTD=
EXTT0=
EXTT1=
EXTT2=
EXTT3=
EXTT4=
EXTT5=
EXTT6=
EXTT7=
EXTT8=
EXTT9=
EXTT10=
PLAYORDER=
